<?xml version="1.0" encoding="UTF-8"?>
<svg version="1.1" xmlns="http://www.w3.org/2000/svg" width="1440" height="1418">
<path d="M0 0 C475.2 0 950.4 0 1440 0 C1440 461.34 1440 922.68 1440 1398 C964.8 1398 489.6 1398 0 1398 C0 936.66 0 475.32 0 0 Z " fill="#1A1612" transform="translate(0,0)"/>
<path d="M0 0 C475.2 0 950.4 0 1440 0 C1440 461.34 1440 922.68 1440 1398 C964.8 1398 489.6 1398 0 1398 C0 936.66 0 475.32 0 0 Z M714.0625 104.375 C712.81758355 105.95540186 712.81758355 105.95540186 713 108 C711.90437744 107.98694824 710.80875488 107.97389648 709.67993164 107.96044922 C698.87962055 107.87133687 688.20130049 108.25210959 677.4375 109.125 C676.23652679 109.22103012 676.23652679 109.22103012 675.0112915 109.31900024 C587.04580189 116.50044937 501.63279908 143.73366804 360.74414062 235.56005859 C358.28833263 237.58754398 355.79677132 239.57005696 353.3125 241.5625 C348.62873031 245.39275142 344.17644779 249.43906064 339.76489258 253.57641602 C337.03409497 256.1368936 334.2705141 258.6295419 331.421875 261.05859375 C325.92311954 265.84662571 320.81620103 271.03448814 315.67260742 276.19702148 C313.941053 277.933936 312.20421641 279.66543889 310.46679688 281.39648438 C304.76352203 287.09597917 299.21020017 292.84032118 294 299 C292.9553005 300.19201432 291.90842631 301.38212626 290.859375 302.5703125 C283.61336054 310.83518981 276.67431447 319.26825462 270 328 C269.43555176 328.7331543 268.87110352 329.46630859 268.28955078 330.22167969 C258.62990972 342.79141417 249.58108451 355.67134807 241 369 C240.46697266 369.82516113 239.93394531 370.65032227 239.38476562 371.50048828 C209.07393192 418.69106364 186.43072165 470.10056134 171 524 C170.78037598 524.75345703 170.56075195 525.50691406 170.33447266 526.28320312 C163.20961964 550.92355083 158.55030548 576.6232893 155 602 C154.79165527 603.44028564 154.79165527 603.44028564 154.57910156 604.90966797 C152.97984898 616.20039119 151.966233 627.41419676 151.546875 638.8046875 C151.51030792 639.75036087 151.47374084 640.69603424 151.43606567 641.67036438 C151.25533221 646.42909927 151.10377171 651.18603678 150.99755859 655.94702148 C150.93924494 657.71080031 150.88019562 659.47455501 150.8203125 661.23828125 C150.80771393 662.45383194 150.80771393 662.45383194 150.79486084 663.69393921 C150.62365356 668.00109077 150.4555816 669.49547198 147.45263672 672.82104492 C146.6432666 673.5401001 145.83389648 674.25915527 145 675 C144.74588432 678.63825863 144.74588432 678.63825863 146 682 C146.66700928 682.39912598 147.33401855 682.79825195 148.02124023 683.20947266 C150 685 150 685 150.59008789 688.55224609 C150.65362127 690.041944 150.69633949 691.53261767 150.72265625 693.0234375 C150.75295929 693.827742 150.78326233 694.63204651 150.81448364 695.46072388 C150.87868419 697.1933503 150.93472426 698.92629431 150.98348999 700.65942383 C151.11709395 705.25139563 151.32419583 709.84017503 151.5234375 714.4296875 C151.56186264 715.34598938 151.60028778 716.26229126 151.63987732 717.20635986 C153.45685678 759.43803533 161.18686598 804.11856757 175.02880859 844.16162109 C176.00214058 847.006256 176.94561661 849.85998968 177.88490295 852.71601868 C199.84071415 919.35909257 232.44769074 983.25309542 278 1037 C278.91566188 1038.08959398 279.8310089 1039.17945261 280.74609375 1040.26953125 C293.18627629 1055.05931437 306.09258391 1069.26878711 319.78051758 1082.91088867 C321.69925505 1084.82422194 323.61252754 1086.74290504 325.52539062 1088.66210938 C331.51325087 1094.65355575 337.50614432 1100.55169357 344 1106 C345.11861995 1106.97231279 346.23583269 1107.94624713 347.3515625 1108.921875 C355.37482315 1115.87237758 363.55354487 1122.57016522 372 1129 C372.68626465 1129.52287598 373.3725293 1130.04575195 374.07958984 1130.58447266 C398.35958118 1148.98597874 424.01526517 1165.27175823 450.78320312 1179.79541016 C452.24536271 1180.58993608 453.70506804 1181.38899757 455.16210938 1182.19287109 C479.0877432 1195.38001598 504.31052581 1205.79683973 530 1215 C531.1048877 1215.39670898 532.20977539 1215.79341797 533.34814453 1216.20214844 C590.46900503 1236.48647246 652.34046578 1248.00583411 713 1247 C713.309375 1247.639375 713.61875 1248.27875 713.9375 1248.9375 C714.8345163 1250.93610821 714.8345163 1250.93610821 716 1252 C721.31444876 1252.55009684 721.31444876 1252.55009684 726 1250.625 C727.17469914 1249.03412093 727.17469914 1249.03412093 727 1247 C728.90265625 1247.06960938 728.90265625 1247.06960938 730.84375 1247.140625 C781.36683371 1248.3589451 834.39538987 1238.61889626 882.51806641 1223.76269531 C884.6674807 1223.1021828 886.82114901 1222.46307034 888.98046875 1221.8359375 C957.56900165 1201.39905417 1023.25337103 1166.0943651 1078.24707031 1120.44873047 C1080.75011324 1118.38005961 1083.28420376 1116.35017785 1085.8125 1114.3125 C1090.41773356 1110.54395302 1094.82873534 1106.59211696 1099.19921875 1102.5546875 C1101.34692541 1100.59569147 1103.5169167 1098.6868254 1105.71777344 1096.78930664 C1109.73735467 1093.27562092 1113.54853925 1089.5966782 1117.31640625 1085.81640625 C1117.97656235 1085.15720688 1118.63671844 1084.49800751 1119.31687927 1083.8188324 C1120.70035506 1082.43603165 1122.08259083 1081.05198924 1123.46362305 1079.66674805 C1125.55731669 1077.56769657 1127.65629874 1075.4740406 1129.75585938 1073.38085938 C1131.10969571 1072.02636214 1132.46322175 1070.67155469 1133.81640625 1069.31640625 C1134.43326797 1068.70156876 1135.0501297 1068.08673126 1135.6856842 1067.45326233 C1139.9863798 1063.12975562 1144.02623499 1058.62429307 1148 1054 C1148.97333373 1052.88226828 1149.94718512 1051.76498682 1150.921875 1050.6484375 C1157.3816364 1043.19088172 1163.6232834 1035.59913758 1169.63330078 1027.77441406 C1170.9633447 1026.04759034 1172.30736755 1024.33239051 1173.65234375 1022.6171875 C1180.58196928 1013.67489978 1186.90620753 1004.33989639 1193.1875 994.9375 C1193.60716034 994.31109619 1194.02682068 993.68469238 1194.459198 993.03930664 C1204.42559738 978.13688103 1213.44612875 962.75205807 1222 947 C1222.68618408 945.74848145 1222.68618408 945.74848145 1223.38623047 944.47167969 C1236.7587374 919.98525608 1247.60024818 894.35903547 1256.90478516 868.07421875 C1257.9374841 865.17547931 1259.00095402 862.29016824 1260.07421875 859.40625 C1273.89852146 821.75379077 1282.47024652 780.75804269 1286.5625 740.875 C1286.68834473 739.69357422 1286.81418945 738.51214844 1286.94384766 737.29492188 C1287.70024628 729.67073444 1288.16529467 722.07005112 1288.45703125 714.4140625 C1288.49335159 713.51033905 1288.52967194 712.6066156 1288.5670929 711.67550659 C1288.74514637 707.18080263 1288.89561444 702.6878872 1289.00219727 698.19091797 C1289.060524 696.53349899 1289.11965006 694.87610789 1289.1796875 693.21875 C1289.18809158 692.46163727 1289.19649567 691.70452454 1289.20515442 690.92446899 C1289.37682989 686.88781263 1289.77900549 685.2417935 1292.54736328 682.21289062 C1293.3567334 681.48263672 1294.16610352 680.75238281 1295 680 C1295.25411568 676.36174137 1295.25411568 676.36174137 1294 673 C1292.99731079 672.40179443 1292.99731079 672.40179443 1291.97436523 671.79150391 C1290 670 1290 670 1289.44165039 666.45458984 C1289.39140283 664.95722093 1289.36160199 663.45908435 1289.34765625 661.9609375 C1289.29610178 660.2692809 1289.24433402 658.57763079 1289.19238281 656.88598633 C1289.17195923 655.98925201 1289.15153564 655.0925177 1289.13049316 654.16860962 C1288.32431481 621.04546225 1284.12062402 588.34862978 1277 556 C1276.75636719 554.89285645 1276.51273438 553.78571289 1276.26171875 552.64501953 C1257.89484272 470.52200229 1220.86720288 393.18426549 1169 327 C1168.33355469 326.14921875 1167.66710938 325.2984375 1166.98046875 324.421875 C1159.40693188 314.85854942 1151.5143536 305.5483345 1143.296875 296.5324707 C1141.87038441 294.95966172 1140.45175539 293.37963776 1139.0456543 291.78857422 C1133.27871595 285.27749247 1127.23888184 279.08457592 1121.0793457 272.94897461 C1119.43258596 271.30760204 1117.79127905 269.66091181 1116.15039062 268.01367188 C1110.60569211 262.46510855 1104.98729743 257.07349426 1099 252 C1097.81986719 250.96683631 1096.64146665 249.93169045 1095.46484375 248.89453125 C1069.113523 225.82046161 1040.55255301 204.56131198 1010.08496094 187.19042969 C1008.53761211 186.30695511 1006.99466066 185.41576943 1005.45410156 184.52050781 C979.62543696 169.52754466 952.90963814 156.64839171 925 146 C924.02199432 145.62651428 924.02199432 145.62651428 923.02423096 145.2454834 C906.33464587 138.88551236 889.67463778 132.93525043 872.32617188 128.6015625 C870.16325545 128.04221887 868.02835777 127.42942553 865.890625 126.78125 C831.91617546 116.54259938 796.06565304 112.06222021 760.80493164 109.29907227 C758.34524882 109.1057382 755.88604704 108.90613654 753.42749023 108.69897461 C747.16363935 108.18195979 740.97200981 107.8624783 734.6875 107.9375 C733.55924805 107.94426758 733.55924805 107.94426758 732.40820312 107.95117188 C730.60543185 107.96265449 728.80270314 107.98056967 727 108 C726.71125 107.360625 726.4225 106.72125 726.125 106.0625 C725.17176549 103.84793921 725.17176549 103.84793921 723 103 C718.24925122 102.51979333 718.24925122 102.51979333 714.0625 104.375 Z " fill="#1A1612" transform="translate(0,0)"/>
<path d="M0 0 C2.66526335 0.02375545 5.32952914 0.02050917 7.99487305 0.01391602 C41.57351195 0.06659281 73.45058801 8.52616683 97.96948242 32.33618164 C98.72745117 33.02067383 99.48541992 33.70516602 100.26635742 34.41040039 C122.24674292 54.91279445 130.80190553 87.20238255 132.35229492 116.25024414 C132.70527982 127.26356436 132.45504764 136.64589954 124.78198242 145.21118164 C118.59157558 150.77071899 112.06664848 153.11603178 103.74682617 152.78930664 C96.69780551 151.63925545 90.39147914 147.92870691 85.96948242 142.33618164 C82.80100824 136.850626 80.9066453 132.03645783 80.57495117 125.66430664 C79.35791361 104.80398598 77.27497937 84.16102679 61.96948242 68.33618164 C42.60718825 51.44197165 14.45700994 49.7151159 -10.03051758 51.33618164 C-26.11028305 52.84904564 -42.80107797 58.93259477 -54.08520508 70.87915039 C-69.77182473 90.69216999 -73.15217516 116.42898292 -73.20410156 140.91723633 C-73.21042227 142.25558684 -73.21718969 143.5939353 -73.22436523 144.93228149 C-73.23893214 147.79571853 -73.25069801 150.65914802 -73.26031303 153.5226059 C-73.27590273 158.06395647 -73.29985145 162.60524025 -73.32521057 167.14654541 C-73.39604924 180.05411535 -73.45606373 192.96172264 -73.50732422 205.86938477 C-73.53576596 213.01266879 -73.57121648 220.1558853 -73.61397797 227.29909825 C-73.64050845 231.79946786 -73.65856046 236.29976138 -73.67001522 240.80019331 C-73.6792418 243.61758043 -73.69664837 246.43487608 -73.71619415 249.25220871 C-73.72704271 251.15068765 -73.72841081 253.04921367 -73.72932434 254.94772339 C-73.79828419 263.22111842 -74.67595129 271.17814225 -76.03051758 279.33618164 C-76.17921515 280.24765331 -76.32791273 281.15912498 -76.48111629 282.09821701 C-81.81600186 314.10968193 -94.82376074 345.54231672 -121.96801758 365.08618164 C-123.64571114 366.18464041 -125.33338499 367.26800171 -127.03051758 368.33618164 C-127.86196289 368.89692383 -128.6934082 369.45766602 -129.55004883 370.03540039 C-160.58900399 389.79553637 -202.70595252 391.85839678 -237.96411133 384.52368164 C-239.65513526 384.13745039 -241.34414225 383.74222936 -243.03051758 383.33618164 C-243.77060059 383.15958008 -244.51068359 382.98297852 -245.27319336 382.80102539 C-260.87022125 378.89362801 -276.72223189 371.73194909 -289.03051758 361.33618164 C-290.0127832 360.51504883 -290.99504883 359.69391602 -292.00708008 358.84790039 C-304.28580191 348.26628515 -312.52130607 336.11394746 -319.03051758 321.33618164 C-319.4559082 320.38751221 -319.4559082 320.38751221 -319.88989258 319.41967773 C-324.99184904 307.81092184 -327.11428339 295.81446969 -329.03051758 283.33618164 C-329.22387695 282.17989258 -329.41723633 281.02360352 -329.61645508 279.83227539 C-330.16501686 275.20055093 -330.29308098 270.62193075 -330.34301758 265.96118164 C-330.37202148 265.06657227 -330.40102539 264.17196289 -330.4309082 263.25024414 C-330.50443566 255.46764523 -328.43490101 249.24552153 -323.71801758 243.02368164 C-318.10430873 237.40997279 -312.26217699 235.23067128 -304.40551758 234.96118164 C-297.14203003 235.04090285 -291.62482423 237.13702076 -286.18286133 241.98071289 C-279.98420089 248.72765779 -278.67147978 255.15414918 -278.59301758 264.02368164 C-277.95872342 284.08610557 -274.20456808 304.28354246 -259.63208008 319.15649414 C-243.13305806 332.97999908 -222.43925051 335.70010303 -201.59301758 335.64868164 C-200.29041992 335.66479492 -198.98782227 335.6809082 -197.64575195 335.69750977 C-178.97611096 335.70680277 -160.53035546 331.07198916 -146.46801758 318.27368164 C-137.16719839 308.49700659 -132.08816797 296.15135576 -128.90551758 283.27368164 C-128.66720215 282.32960449 -128.66720215 282.32960449 -128.42407227 281.36645508 C-124.54495775 264.61684695 -124.74453612 247.61162078 -124.75612259 230.53010368 C-124.7590054 226.02322584 -124.74442075 221.51649852 -124.72714233 217.00965881 C-124.68058538 204.20649451 -124.65621197 191.40334312 -124.6496582 178.60009766 C-124.64587061 171.49947917 -124.62755471 164.39903456 -124.59456384 157.29849058 C-124.57790712 153.56434184 -124.56835625 149.83050867 -124.5775032 146.09632683 C-124.67358794 103.19042938 -117.38183101 62.91712263 -86.96801758 30.83618164 C-63.71360566 8.15753232 -31.73516681 -0.30162611 0 0 Z " fill="#C49639" transform="translate(819.030517578125,315.663818359375)"/>
<path d="M0 0 C3.60389664 -0.11601004 7.20731467 -0.18718408 10.8125 -0.25 C11.83666016 -0.28351562 12.86082031 -0.31703125 13.91601562 -0.3515625 C14.89892578 -0.36445312 15.88183594 -0.37734375 16.89453125 -0.390625 C17.80050049 -0.41157227 18.70646973 -0.43251953 19.63989258 -0.45410156 C22 0 22 0 23.72753906 1.78735352 C24.87987929 3.79112548 25.73938005 5.60489904 26.46484375 7.79296875 C26.70783203 8.50646484 26.95082031 9.21996094 27.20117188 9.95507812 C27.44416016 10.69177734 27.68714844 11.42847656 27.9375 12.1875 C29.3913661 16.5490983 30.87781221 20.83399246 32.79223633 25.01782227 C35.32870391 30.6723427 37.62420584 36.41702194 39.921875 42.171875 C40.38555481 43.3301178 40.84923462 44.4883606 41.32696533 45.68170166 C42.55484904 48.75056063 43.78106272 51.8200805 45.00671387 54.88983154 C46.2262071 57.94176908 47.44943812 60.99220933 48.671875 64.04296875 C53.33462525 75.69728263 57.93594017 87.36851472 62.37101746 99.1114502 C64.41971361 104.52242991 66.56714851 109.87887024 68.82861328 115.20507812 C70.16118689 118.38459099 71.42458334 121.58754464 72.68359375 124.796875 C73.13669922 125.94027344 73.58980469 127.08367187 74.05664062 128.26171875 C74.98203811 130.59942726 75.89862667 132.9406409 76.80664062 135.28515625 C80.10638091 143.55088865 83.56742603 151.95773279 91.921875 156.19140625 C96.16953986 157.84416306 100.57250753 158.94316635 105 160 C105 157.03 105 154.06 105 151 C105.66386719 151.27714844 106.32773437 151.55429688 107.01171875 151.83984375 C107.89472656 152.20207031 108.77773438 152.56429688 109.6875 152.9375 C110.55761719 153.29714844 111.42773438 153.65679688 112.32421875 154.02734375 C117.68320008 155.97535302 122.77331853 156.1825789 128.4375 156.1875 C129.17548828 156.19974609 129.91347656 156.21199219 130.67382812 156.22460938 C135.12851208 156.23648853 138.90323851 155.9587834 143 154 C145.01381932 150.92052526 145.25096673 148.43310523 145.25396729 144.80041504 C145.25960693 143.74892776 145.26524658 142.69744049 145.27105713 141.61408997 C145.26700867 140.46591293 145.26296021 139.3177359 145.25878906 138.13476562 C145.2622937 136.92141037 145.26579834 135.70805511 145.26940918 134.45793152 C145.27670311 131.13353803 145.2749938 127.8093935 145.26865101 124.48501396 C145.26358503 121.00485781 145.26828413 117.52471224 145.27142334 114.04455566 C145.27506124 108.20042004 145.27026852 102.35633498 145.26074219 96.51220703 C145.24985795 89.75706318 145.25338365 83.00204006 145.264395 76.24689913 C145.2734729 70.44551959 145.27475069 64.64417638 145.26951766 58.84279203 C145.26640072 55.37855774 145.26598102 51.91438018 145.27259064 48.45014954 C145.27944401 44.58846346 145.26994308 40.72691246 145.25878906 36.86523438 C145.26486176 35.14296883 145.26486176 35.14296883 145.27105713 33.38591003 C145.26259766 31.80867912 145.26259766 31.80867912 145.25396729 30.19958496 C145.25321323 29.28667442 145.25245918 28.37376389 145.25168228 27.43318939 C144.97742196 24.78172222 144.46558639 23.21953579 143 21 C137.17717999 17.37447056 131.34751758 15.98760694 124.66015625 14.61328125 C122 14 122 14 121 13 C115.29759979 12.47381286 110.39009729 13.16507326 105 15 C105 10.38 105 5.76 105 1 C118.24123351 -1.20687225 135.63376686 -2.18311657 148 4 C150.03160472 4.12037961 152.0670744 4.17739122 154.10205078 4.20532227 C155.38322784 4.22526749 156.66440491 4.24521271 157.98440552 4.26576233 C159.38803994 4.28274669 160.79167563 4.29962549 162.1953125 4.31640625 C163.62735597 4.3369754 165.05939337 4.35797186 166.49142456 4.37937927 C170.26266563 4.43460403 174.03396152 4.48401147 177.80529785 4.53222656 C181.65280036 4.58243867 185.50022313 4.63812624 189.34765625 4.69335938 C196.89837 4.80094587 204.44915 4.90238971 212 5 C212 7.97 212 10.94 212 14 C210.75863281 14.17015625 209.51726562 14.3403125 208.23828125 14.515625 C206.59623066 14.7595868 204.95431006 15.00442471 203.3125 15.25 C202.49587891 15.35957031 201.67925781 15.46914063 200.83789062 15.58203125 C195.84672232 16.3499033 192.6661898 17.26872991 189 21 C187.65551267 23.68897467 187.83804236 25.81591649 187.79467773 28.82666016 C187.77473251 30.04777496 187.75478729 31.26888977 187.73423767 32.52700806 C187.71725344 33.86435823 187.70037463 35.20170975 187.68359375 36.5390625 C187.66302397 37.90384553 187.64202749 39.26862218 187.62062073 40.63339233 C187.56540241 44.22707973 187.51599213 47.8208246 187.46777344 51.41461182 C187.41755663 55.08114746 187.36187151 58.74759956 187.30664062 62.4140625 C187.199062 69.60930426 187.09761643 76.80461546 187 84 C191.46771925 82.64503597 193.81362931 81.4139686 197 78 C197.66 78 198.32 78 199 78 C199 77.34 199 76.68 199 76 C200.50390625 74.51953125 200.50390625 74.51953125 202.5625 72.8125 C206.10996174 69.81322507 209.36522872 66.66004868 212.5546875 63.28515625 C214 62 214 62 216 62 C216 61.34 216 60.68 216 60 C217.43359375 58.625 217.43359375 58.625 219.4375 57 C228.48924264 49.28454274 244.53432142 34.4517679 247.609375 22.6640625 C247.65578125 21.99117187 247.7021875 21.31828125 247.75 20.625 C247.8325 19.42875 247.915 18.2325 248 17 C242.97158737 15.06599514 238.3268851 14.48426228 233 14 C233 11.03 233 8.06 233 5 C256.43 5 279.86 5 304 5 C304 7.97 304 10.94 304 14 C302.43765625 14.185625 302.43765625 14.185625 300.84375 14.375 C280.112044 17.20426811 266.14409168 27.40086867 251.828125 42.16796875 C249.93617354 44.06396284 247.96729282 45.81548366 245.9375 47.5625 C239.99583133 52.69183116 234.68036094 58.24256899 229.578125 64.203125 C228.11118731 65.87340058 226.59043707 67.44788672 225 69 C226.50390126 72.36256898 228.45252902 74.93029442 230.8125 77.75 C231.61558594 78.71808594 232.41867187 79.68617188 233.24609375 80.68359375 C233.68679199 81.2132373 234.12749023 81.74288086 234.58154297 82.28857422 C237.19926671 85.4469638 239.78701849 88.62972941 242.375 91.8125 C242.92953857 92.4938501 243.48407715 93.1752002 244.05541992 93.87719727 C247.6273081 98.27700311 251.14247374 102.71678258 254.625 107.1875 C258.65773675 112.36114902 262.82241339 117.40089876 267.08642578 122.38525391 C269.79716753 125.55830775 272.42713515 128.77698827 275 132.0625 C284.34307467 143.7747797 294.6046361 156.63200539 310.4375 158.6875 C312.2009375 158.8421875 312.2009375 158.8421875 314 159 C314 162.3 314 165.6 314 169 C305.79404386 169.25565877 297.58976839 169.45069637 289.38080597 169.56993389 C285.56818853 169.62718591 281.75830763 169.70471884 277.94726562 169.82983398 C274.26412959 169.94998355 270.58361162 170.01524483 266.89866638 170.04364967 C265.49815131 170.06386887 264.097769 170.10336181 262.69837952 170.16303062 C251.75120815 170.61094429 251.75120815 170.61094429 247.39195251 166.60084534 C245.34921374 163.81623278 243.64330476 161.03350434 242 158 C241.20600019 156.82285049 240.3978021 155.65494822 239.56640625 154.50390625 C238.90511719 153.53324219 238.24382812 152.56257813 237.5625 151.5625 C233.21743273 145.23896807 228.65342854 139.09923061 224 133 C223.23042969 131.98421875 222.46085937 130.9684375 221.66796875 129.921875 C216.46714784 123.09947342 211.13847046 116.39276312 205.69213867 109.7644043 C201.93629726 105.19069113 198.3365129 100.52800749 194.87890625 95.72265625 C192.39193717 93.44250372 190.2831434 93.44685453 187 93 C187.09356443 97.64513161 187.19966409 102.2897438 187.31738281 106.93432617 C187.35566221 108.51432451 187.39051697 110.09440969 187.421875 111.67456055 C187.46754876 113.94611645 187.52553784 116.21707509 187.5859375 118.48828125 C187.60326431 119.54780754 187.60326431 119.54780754 187.62094116 120.6287384 C187.73071048 124.27741393 187.92142364 125.88213546 190 129 C189.35140883 130.67378365 188.68056496 132.3389601 188 134 C187.73532666 136.71917027 187.58506174 139.28256376 187.5625 142 C187.52962891 142.69867187 187.49675781 143.39734375 187.46289062 144.1171875 C187.42443806 147.82261614 187.84923126 149.78792646 190.0078125 152.82421875 C193.65208195 155.47416403 197.00515065 156.63846823 201.3125 157.8125 C202.05306641 158.02841797 202.79363281 158.24433594 203.55664062 158.46679688 C205.36694557 158.99236928 207.18295359 159.49823043 209 160 C209 162.97 209 165.94 209 169 C208.21232239 169.00586624 207.42464478 169.01173248 206.61309814 169.01777649 C199.14082929 169.07600537 191.66888248 169.1482508 184.19690323 169.23571491 C180.3567139 169.28018644 176.51662501 169.31949146 172.67626953 169.34643555 C168.96075323 169.37270311 165.24562841 169.41326471 161.53035736 169.46318626 C160.12245352 169.4796983 158.71448222 169.49130899 157.30649567 169.49761391 C149.34502375 169.53682494 142.24409095 170.17602488 134.57281494 172.33015442 C131.31309537 173.17883915 128.28294976 173.34239632 124.921875 173.29296875 C123.74238281 173.28330078 122.56289063 173.27363281 121.34765625 173.26367188 C120.16042969 173.23853516 118.97320313 173.21339844 117.75 173.1875 C116.51636719 173.17396484 115.28273438 173.16042969 114.01171875 173.14648438 C111.00733396 173.11154967 108.00391591 173.06250145 105 173 C105 171.68 105 170.36 105 169 C75.63 169 46.26 169 16 169 C16 166.03 16 163.06 16 160 C20.70713478 158.21892197 25.36881141 157.34850088 30.31640625 156.5625 C33.05082969 155.98934574 35.44165593 155.11031208 38 154 C37.69280537 145.24495297 34.40452912 137.92187885 31 130 C30.05976958 127.7928278 29.12201553 125.58459795 28.1875 123.375 C27.78917969 122.45460938 27.39085937 121.53421875 26.98046875 120.5859375 C26 118 26 118 25 113 C12.79 113 0.58 113 -12 113 C-12 109.04 -12 105.08 -12 101 C-1.77 101 8.46 101 19 101 C12.01832478 83.07385421 12.01832478 83.07385421 4.8203125 65.234375 C4.56613052 64.61637527 4.31194855 63.99837555 4.05006409 63.36164856 C2.82538701 60.38669304 1.59414357 57.41469484 0.35424805 54.44604492 C-0.30643677 52.84660034 -0.30643677 52.84660034 -0.98046875 51.21484375 C-1.37129639 50.27761475 -1.76212402 49.34038574 -2.16479492 48.37475586 C-3 46 -3 46 -3 43 C-6.13362724 44.56681362 -6.34268902 47.21608254 -7.5 50.4375 C-9.78559177 56.78559177 -9.78559177 56.78559177 -12 59 C-12 56.69 -12 54.38 -12 52 C-14.31 52 -16.62 52 -19 52 C-19.25579834 51.48727539 -19.51159668 50.97455078 -19.77514648 50.44628906 C-28.80674058 31.15587482 -28.80674058 31.15587482 -44 17 C-49.91035481 15.55935101 -56.32574755 15.9701079 -62.375 15.984375 C-63.62023437 15.98663086 -64.86546875 15.98888672 -66.1484375 15.99121094 C-67.08945312 15.99411133 -68.03046875 15.99701172 -69 16 C-69.07011089 32.97663254 -69.12299833 49.95321983 -69.15543652 66.92996407 C-69.1708991 74.81273364 -69.19197694 82.6954132 -69.22631836 90.578125 C-69.25623941 97.44946792 -69.27557943 104.32074565 -69.28226548 111.1921519 C-69.28617318 114.82983463 -69.29534397 118.46733086 -69.31719017 122.10495377 C-69.34139215 126.16787201 -69.34196826 130.23046692 -69.34057617 134.29345703 C-69.351362 135.49683212 -69.36214783 136.70020721 -69.3732605 137.94004822 C-69.37159638 145.89659373 -69.37159638 145.89659373 -66 153 C-62.02252257 156.24779632 -57.68241873 156.84432941 -52.75 157.625 C-45.11075949 158.88924051 -45.11075949 158.88924051 -44 160 C-43.8671875 161.8125 -43.8671875 161.8125 -43.875 164 C-43.87113281 165.0828125 -43.87113281 165.0828125 -43.8671875 166.1875 C-44 168 -44 168 -45 169 C-47.93627287 169.10131011 -50.84849363 169.13967231 -53.78515625 169.1328125 C-55.11963051 169.13424759 -55.11963051 169.13424759 -56.48106384 169.13571167 C-58.37173533 169.13639402 -60.26240914 169.13453591 -62.15307617 169.13037109 C-65.02593381 169.1250675 -67.89863193 169.13029123 -70.77148438 169.13671875 C-72.60937534 169.13605712 -74.44726621 169.13477419 -76.28515625 169.1328125 C-77.13755386 169.13483673 -77.98995148 169.13686096 -78.86817932 169.13894653 C-79.68519821 169.13579437 -80.5022171 169.13264221 -81.34399414 169.12939453 C-82.40536339 169.12820114 -82.40536339 169.12820114 -83.48817444 169.12698364 C-87.00770164 168.94905632 -90.5031911 168.43710111 -94 168 C-94 114.21 -94 60.42 -94 5 C-66.61 5 -39.22 5 -11 5 C-10.505 13.91 -10.505 13.91 -10 23 C-8.19846935 18.05224611 -8.19846935 18.05224611 -6.41113281 13.09936523 C-4.68290073 8.4230076 -2.57951323 4.26741211 0 0 Z " fill="#C39539" transform="translate(700,941)"/>
<path d="M0 0 C3.77130907 0.25568197 5.11206772 0.57155043 7.6875 3.25 C7.6875 3.91 7.6875 4.57 7.6875 5.25 C8.6978833 5.23549805 9.7082666 5.22099609 10.74926758 5.20605469 C21.68159764 5.09864554 32.48070402 5.62343498 43.375 6.5 C44.21589172 6.56624573 45.05678345 6.63249146 45.92315674 6.70074463 C70.45971848 8.65148539 94.63769225 11.93163389 118.6875 17.25 C119.9053418 17.5171582 121.12318359 17.78431641 122.37792969 18.05957031 C136.90611747 21.27214658 151.27577116 24.71147002 165.37841797 29.49194336 C168.14884898 30.40145788 170.93846523 31.23718331 173.73046875 32.078125 C181.38482893 34.4235753 188.9159939 37.07756615 196.4375 39.8125 C197.15437988 40.07289063 197.87125977 40.33328125 198.60986328 40.6015625 C212.23977778 45.57215314 225.53370279 51.12237518 238.6875 57.25 C239.72310059 57.72937012 240.75870117 58.20874023 241.82568359 58.70263672 C271.94518123 72.7030101 300.55815114 89.07556746 327.6875 108.25 C328.44901367 108.7847998 329.21052734 109.31959961 329.99511719 109.87060547 C340.31091785 117.13092268 350.23798294 124.75357988 359.94335938 132.81005859 C362.39916737 134.83754398 364.89072868 136.82005696 367.375 138.8125 C372.05876969 142.64275142 376.51105221 146.68906064 380.92260742 150.82641602 C383.65340503 153.3868936 386.4169859 155.8795419 389.265625 158.30859375 C394.76438046 163.09662571 399.87129897 168.28448814 405.01489258 173.44702148 C406.746447 175.183936 408.48328359 176.91543889 410.22070312 178.64648438 C415.92397797 184.34597917 421.47729983 190.09032118 426.6875 196.25 C427.7321995 197.44201432 428.77907369 198.63212626 429.828125 199.8203125 C437.07413946 208.08518981 444.01318553 216.51825462 450.6875 225.25 C451.25194824 225.9831543 451.81639648 226.71630859 452.39794922 227.47167969 C462.05759028 240.04141417 471.10641549 252.92134807 479.6875 266.25 C480.22052734 267.07516113 480.75355469 267.90032227 481.30273438 268.75048828 C511.61356808 315.94106364 534.25677835 367.35056134 549.6875 421.25 C549.90712402 422.00345703 550.12674805 422.75691406 550.35302734 423.53320312 C557.47788036 448.17355083 562.13719452 473.8732893 565.6875 499.25 C565.89584473 500.69028564 565.89584473 500.69028564 566.10839844 502.15966797 C567.70765102 513.45039119 568.721267 524.66419676 569.140625 536.0546875 C569.17719208 537.00036087 569.21375916 537.94603424 569.25143433 538.92036438 C569.43216779 543.67909927 569.58372829 548.43603678 569.68994141 553.19702148 C569.74825506 554.96080031 569.80730438 556.72455501 569.8671875 558.48828125 C569.87978607 559.70383194 569.87978607 559.70383194 569.89263916 560.94393921 C570.06384644 565.25109077 570.2319184 566.74547198 573.23486328 570.07104492 C574.0442334 570.7901001 574.85360352 571.50915527 575.6875 572.25 C575.75 575.875 575.75 575.875 574.6875 579.25 C574.02049072 579.64912598 573.35348145 580.04825195 572.66625977 580.45947266 C570.31537374 582.21392286 570.31537374 582.21392286 570.09741211 585.80224609 C570.03387873 587.291944 569.99116051 588.78261767 569.96484375 590.2734375 C569.93454071 591.077742 569.90423767 591.88204651 569.87301636 592.71072388 C569.80881581 594.4433503 569.75277574 596.17629431 569.70401001 597.90942383 C569.57040605 602.50139563 569.36330417 607.09017503 569.1640625 611.6796875 C569.12563736 612.59598938 569.08721222 613.51229126 569.04762268 614.45635986 C567.23064322 656.68803533 559.50063402 701.36856757 545.65869141 741.41162109 C544.68535942 744.256256 543.74188339 747.10998968 542.80259705 749.96601868 C520.84678585 816.60909257 488.23980926 880.50309542 442.6875 934.25 C441.77183812 935.33959398 440.8564911 936.42945261 439.94140625 937.51953125 C427.50122371 952.30931437 414.59491609 966.51878711 400.90698242 980.16088867 C398.98824495 982.07422194 397.07497246 983.99290504 395.16210938 985.91210938 C389.17424913 991.90355575 383.18135568 997.80169357 376.6875 1003.25 C375.56888005 1004.22231279 374.45166731 1005.19624713 373.3359375 1006.171875 C365.31267685 1013.12237758 357.13395513 1019.82016522 348.6875 1026.25 C348.00123535 1026.77287598 347.3149707 1027.29575195 346.60791016 1027.83447266 C327.15275512 1042.57929479 306.82022139 1056.0348917 285.6875 1068.25 C284.98625 1068.65847168 284.285 1069.06694336 283.5625 1069.48779297 C245.55543802 1091.52361086 203.5234316 1110.81444639 160.84667969 1121.67871094 C158.51091 1122.29672327 156.19807345 1122.9732556 153.8828125 1123.6640625 C107.57423808 1137.47398083 56.12119758 1146.02196455 7.6875 1144.25 C7.378125 1144.889375 7.06875 1145.52875 6.75 1146.1875 C5.6875 1148.25 5.6875 1148.25 4.6875 1149.25 C-2.62617292 1149.72184987 -2.62617292 1149.72184987 -5.3125 1147.875 C-6.3125 1146.25 -6.3125 1146.25 -6.3125 1144.25 C-6.89700928 1144.26571045 -7.48151855 1144.2814209 -8.08374023 1144.29760742 C-90.68665142 1146.18126854 -174.35104013 1122.8766359 -357.55957031 1017.69873047 C-360.06261324 1015.63005961 -362.59670376 1013.60017785 -365.125 1011.5625 C-369.73023356 1007.79395302 -374.14123534 1003.84211696 -378.51171875 999.8046875 C-380.65942541 997.84569147 -382.8294167 995.9368254 -385.03027344 994.03930664 C-389.04985467 990.52562092 -392.86103925 986.8466782 -396.62890625 983.06640625 C-397.28906235 982.40720688 -397.94921844 981.74800751 -398.62937927 981.0688324 C-400.01285506 979.68603165 -401.39509083 978.30198924 -402.77612305 976.91674805 C-404.86981669 974.81769657 -406.96879874 972.7240406 -409.06835938 970.63085938 C-410.42219571 969.27636214 -411.77572175 967.92155469 -413.12890625 966.56640625 C-413.74576797 965.95156876 -414.3626297 965.33673126 -414.9981842 964.70326233 C-419.2988798 960.37975562 -423.33873499 955.87429307 -427.3125 951.25 C-428.28583373 950.13226828 -429.25968512 949.01498682 -430.234375 947.8984375 C-436.6941364 940.44088172 -442.9357834 932.84913758 -448.94580078 925.02441406 C-450.2758447 923.29759034 -451.61986755 921.58239051 -452.96484375 919.8671875 C-459.89446928 910.92489978 -466.21870753 901.58989639 -472.5 892.1875 C-472.91966034 891.56109619 -473.33932068 890.93469238 -473.771698 890.28930664 C-483.73809738 875.38688103 -492.75862875 860.00205807 -501.3125 844.25 C-501.76995605 843.4156543 -502.22741211 842.58130859 -502.69873047 841.72167969 C-516.0712374 817.23525608 -526.91274818 791.60903547 -536.21728516 765.32421875 C-537.2499841 762.42547931 -538.31345402 759.54016824 -539.38671875 756.65625 C-553.21102146 719.00379077 -561.78274652 678.00804269 -565.875 638.125 C-566.06376709 636.35286133 -566.06376709 636.35286133 -566.25634766 634.54492188 C-567.01274628 626.92073444 -567.47779467 619.32005112 -567.76953125 611.6640625 C-567.80585159 610.76033905 -567.84217194 609.8566156 -567.8795929 608.92550659 C-568.05764637 604.43080263 -568.20811444 599.9378872 -568.31469727 595.44091797 C-568.373024 593.78349899 -568.43215006 592.12610789 -568.4921875 590.46875 C-568.50059158 589.71163727 -568.50899567 588.95452454 -568.51765442 588.17446899 C-568.68932989 584.13781263 -569.09150549 582.4917935 -571.85986328 579.46289062 C-573.07391846 578.36750977 -573.07391846 578.36750977 -574.3125 577.25 C-574.375 573.625 -574.375 573.625 -573.3125 570.25 C-572.64404053 569.85119629 -571.97558105 569.45239258 -571.28686523 569.04150391 C-568.93862699 567.28695736 -568.93862699 567.28695736 -568.75415039 563.70458984 C-568.70390283 562.20722093 -568.67410199 560.70908435 -568.66015625 559.2109375 C-568.60860178 557.5192809 -568.55683402 555.82763079 -568.50488281 554.13598633 C-568.48445923 553.23925201 -568.46403564 552.3425177 -568.44299316 551.41860962 C-567.63681481 518.29546225 -563.43312402 485.59862978 -556.3125 453.25 C-556.06886719 452.14285645 -555.82523438 451.03571289 -555.57421875 449.89501953 C-537.20734272 367.77200229 -500.17970288 290.43426549 -448.3125 224.25 C-447.64605469 223.39921875 -446.97960937 222.5484375 -446.29296875 221.671875 C-438.71943188 212.10854942 -430.8268536 202.7983345 -422.609375 193.7824707 C-421.18288441 192.20966172 -419.76425539 190.62963776 -418.3581543 189.03857422 C-412.59121595 182.52749247 -406.55138184 176.33457592 -400.3918457 170.19897461 C-398.74508596 168.55760204 -397.10377905 166.91091181 -395.46289062 165.26367188 C-389.91819211 159.71510855 -384.29979743 154.32349426 -378.3125 149.25 C-377.13236719 148.21683631 -375.95396665 147.18169045 -374.77734375 146.14453125 C-347.79105596 122.51446391 -318.52050626 101.00392001 -287.3125 83.25 C-286.43513184 82.74581543 -285.55776367 82.24163086 -284.65380859 81.72216797 C-210.64581172 39.26939039 -129.4333309 13.49105637 -41.875 6.375 C-41.11274109 6.31324585 -40.35048218 6.2514917 -39.56512451 6.18786621 C-28.4681246 5.31169987 -17.44123813 5.11742734 -6.3125 5.25 C-6.003125 4.610625 -5.69375 3.97125 -5.375 3.3125 C-3.81696163 0.28807258 -3.81696163 0.28807258 0 0 Z M-167.3125 34.25 C-168.82283004 34.71252255 -170.33324402 35.1747711 -171.84375 35.63671875 C-178.41040879 37.65859744 -184.89859517 39.78111335 -191.3125 42.25 C-192.2809082 42.62116943 -193.24931641 42.99233887 -194.24707031 43.37475586 C-208.70896881 48.94109609 -223.0445584 54.66236717 -237.09228516 61.21777344 C-239.23617131 62.21451312 -241.38804683 63.19145597 -243.54296875 64.1640625 C-290.24846131 85.42629709 -335.15821225 115.26451838 -372.90625 150.0546875 C-374.95073988 151.91995262 -377.02087062 153.74319758 -379.109375 155.55859375 C-383.17137871 159.10433721 -387.1334114 162.74547373 -391.0625 166.4375 C-391.75206787 167.08533447 -392.44163574 167.73316895 -393.15209961 168.40063477 C-401.24934431 176.03871387 -409.32451521 183.71860524 -416.546875 192.203125 C-418.7068342 194.70714849 -420.94737993 197.12997698 -423.1875 199.5625 C-428.10827302 204.9649752 -432.7395049 210.55237581 -437.3125 216.25 C-438.23639449 217.38198786 -439.1609029 218.51347487 -440.0859375 219.64453125 C-457.58097212 241.13369333 -473.56856254 264.18317629 -487.3125 288.25 C-487.81958496 289.13171875 -488.32666992 290.0134375 -488.84912109 290.921875 C-530.49948997 363.53687384 -555.90927878 442.82192384 -563.3125 526.25 C-563.38452637 527.06033691 -563.45655273 527.87067383 -563.53076172 528.70556641 C-563.93814701 533.54988536 -564.17513712 538.3905394 -564.3125 543.25 C-564.36132324 544.77028809 -564.36132324 544.77028809 -564.41113281 546.32128906 C-564.50895005 549.7350118 -564.57180864 553.14780912 -564.625 556.5625 C-564.65489014 557.6558667 -564.68478027 558.7492334 -564.71557617 559.87573242 C-564.72306885 560.90287354 -564.73056152 561.93001465 -564.73828125 562.98828125 C-564.75286377 563.90649658 -564.76744629 564.82471191 -564.7824707 565.77075195 C-564.1733799 568.98390371 -562.62303183 570.02367498 -560.3125 572.25 C-560.375 575.875 -560.375 575.875 -561.3125 579.25 C-562.3025 579.91 -563.2925 580.57 -564.3125 581.25 C-564.79802907 583.79118433 -564.79802907 583.79118433 -564.74609375 586.8203125 C-564.75753418 588.00608887 -564.76897461 589.19186523 -564.78076172 590.41357422 C-564.77061035 591.72084473 -564.76045898 593.02811523 -564.75 594.375 C-564.74543793 595.38823334 -564.74543793 595.38823334 -564.74078369 596.42193604 C-564.55258477 625.1745491 -560.64177991 653.68076679 -554.99560547 681.82714844 C-554.40019756 684.81057191 -553.83361925 687.79673749 -553.28515625 690.7890625 C-544.01033594 740.76345374 -525.11795457 788.98613038 -502.3125 834.25 C-501.86841797 835.13929199 -501.42433594 836.02858398 -500.96679688 836.94482422 C-485.67125833 867.44500073 -466.60496446 896.59487175 -445.3125 923.25 C-444.82458984 923.86262695 -444.33667969 924.47525391 -443.83398438 925.10644531 C-428.51124471 944.29326316 -412.19950662 962.41284836 -394.875 979.8125 C-393.7753894 980.91911987 -393.7753894 980.91911987 -392.65356445 982.0480957 C-388.60290063 986.08679845 -384.4561394 989.95014055 -380.12329102 993.68432617 C-377.70038923 995.77925257 -375.3525901 997.9516897 -373 1000.125 C-367.59593362 1005.04181449 -362.03731413 1009.71285127 -356.3125 1014.25 C-355.66925781 1014.76046875 -355.02601563 1015.2709375 -354.36328125 1015.796875 C-282.06909773 1072.99079468 -197.711607 1113.24255849 -56.3125 1138.25 C-55.30316406 1138.36569336 -54.29382813 1138.48138672 -53.25390625 1138.60058594 C-41.72440961 1139.89057278 -30.2252066 1140.47393758 -18.625 1140.625 C-16.8766687 1140.66415527 -16.8766687 1140.66415527 -15.09301758 1140.70410156 C-14.00657959 1140.70635742 -12.9201416 1140.70861328 -11.80078125 1140.7109375 C-10.35505737 1140.72326416 -10.35505737 1140.72326416 -8.88012695 1140.73583984 C-5.59642361 1140.11450585 -4.53530879 1138.66316713 -2.3125 1136.25 C0.6875 1135.75 0.6875 1135.75 3.6875 1136.25 C4.20183594 1136.91257812 4.71617187 1137.57515625 5.24609375 1138.2578125 C9.09245283 1141.39644151 12.93749816 1140.75555922 17.75 1140.625 C18.76078613 1140.60993408 19.77157227 1140.59486816 20.81298828 1140.5793457 C47.6919798 1140.01107516 74.57839408 1137.16897243 100.91650391 1131.80029297 C103.88058391 1131.21165541 106.85048796 1130.66659531 109.82421875 1130.12890625 C159.82371353 1121.02322683 208.11211886 1103.59018759 253.6875 1081.25 C254.67331055 1080.76740723 255.65912109 1080.28481445 256.67480469 1079.78759766 C302.69182756 1057.02875471 345.41633308 1026.67216784 383.00268555 991.79125977 C384.29706519 990.6071678 385.6028087 989.43548871 386.91333008 988.26928711 C393.09952258 982.76298904 399.03294964 977.05649295 404.875 971.1875 C405.72513672 970.34123047 406.57527344 969.49496094 407.45117188 968.62304688 C412.40627618 963.6602899 417.12088495 958.56984021 421.6875 953.25 C423.14195517 951.64231627 424.59970895 950.03760285 426.0625 948.4375 C430.79326093 943.18819023 435.25747052 937.75376055 439.6875 932.25 C440.61288408 931.11686303 441.53868393 929.98406551 442.46484375 928.8515625 C484.09132377 877.69938208 515.29404024 818.58956417 536.62353516 756.33496094 C537.57324309 753.58128736 538.55140789 750.84036479 539.54296875 748.1015625 C548.47605226 723.00181347 554.17391057 696.4601495 558.6875 670.25 C558.8020755 669.60392792 558.916651 668.95785583 559.03469849 668.29220581 C561.10876527 656.58940212 562.69282357 644.88830496 563.875 633.0625 C563.96088379 632.20901978 564.04676758 631.35553955 564.13525391 630.47619629 C565.31829944 618.48699899 566.10527113 606.54862611 566.1875 594.5 C566.21493286 592.5660437 566.21493286 592.5660437 566.24291992 590.59301758 C566.23494385 589.41247803 566.22696777 588.23193848 566.21875 587.015625 C566.21423828 585.99243164 566.20972656 584.96923828 566.20507812 583.91503906 C565.55597015 580.57274538 564.10646103 579.54981817 561.6875 577.25 C561.75 573.625 561.75 573.625 562.6875 570.25 C563.6775 569.59 564.6675 568.93 565.6875 568.25 C566.13753164 566.11380416 566.13753164 566.11380416 566.05078125 563.60546875 C566.05174805 562.63383789 566.05271484 561.66220703 566.05371094 560.66113281 C566.03598633 559.59733398 566.01826172 558.53353516 566 557.4375 C565.98308105 555.77025879 565.98308105 555.77025879 565.96582031 554.06933594 C565.48583256 523.79642421 561.81922792 493.87896237 555.6875 464.25 C555.47367676 463.18990723 555.25985352 462.12981445 555.03955078 461.03759766 C536.73058759 370.42308894 495.89226117 285.28052783 436.6875 214.25 C436.20684082 213.67024414 435.72618164 213.09048828 435.23095703 212.49316406 C429.06245137 205.06199915 422.68516252 197.85840949 416.10986328 190.78564453 C414.63735313 189.19585928 413.17511987 187.59711937 411.71484375 185.99609375 C403.49608719 177.00047944 395.18607614 168.10039622 385.90234375 160.18359375 C383.57439048 158.1512536 381.31634238 156.05657161 379.05859375 153.94702148 C372.80424191 148.10714743 366.37984651 142.58772945 359.6875 137.25 C358.56958806 136.3407337 357.4524394 135.4305284 356.3359375 134.51953125 C323.70512365 107.99225886 288.21901174 86.11474629 250.6875 67.25 C249.7279541 66.76289551 248.7684082 66.27579102 247.77978516 65.77392578 C202.11439225 42.69484785 151.64978034 26.77854144 101.375 17.75 C100.13065689 17.52555206 100.13065689 17.52555206 98.86117554 17.29656982 C75.15077373 13.05619819 50.97101945 9.82633324 26.86230469 9.30126953 C24.51361389 9.24590075 22.16780169 9.15139279 19.8203125 9.05859375 C18.25527242 9.01581652 16.69016688 8.97535489 15.125 8.9375 C14.41512939 8.9075293 13.70525879 8.87755859 12.97387695 8.84667969 C10.76710548 8.77582936 10.76710548 8.77582936 7.6875 9.25 C5.94839306 11.17078899 5.94839306 11.17078899 4.6875 13.25 C2.75 13.78125 2.75 13.78125 0.6875 13.75 C0.006875 13.7603125 -0.67375 13.770625 -1.375 13.78125 C-3.3125 13.25 -3.3125 13.25 -4.46484375 11.24609375 C-6.68420074 8.84843746 -7.27841203 8.91924305 -10.44140625 8.75390625 C-12.25269838 8.74756707 -14.06420559 8.76957035 -15.875 8.8125 C-16.87950195 8.82643799 -17.88400391 8.84037598 -18.91894531 8.85473633 C-69.14042037 10.01050791 -119.43611884 19.42217038 -167.3125 34.25 Z " fill="#B88D37" transform="translate(719.3125,102.75)"/>
<path d="M0 0 C0.72171387 0.30413818 1.44342773 0.60827637 2.18701172 0.92163086 C3.14353638 1.3407373 3.14353638 1.3407373 4.11938477 1.76831055 C6.44633901 2.3679125 7.75726576 2.10343972 9.98779297 1.24975586 C10.50341797 0.56913086 11.01904297 -0.11149414 11.55029297 -0.81274414 C14.5705302 -3.21344553 15.8545627 -2.95705944 19.64013672 -2.87133789 C21.13855103 -2.84511353 21.13855103 -2.84511353 22.66723633 -2.81835938 C23.43302002 -2.79588135 24.19880371 -2.77340332 24.98779297 -2.75024414 C26.181677 34.90790641 26.181677 34.90790641 25.98779297 52.24975586 C22.68779297 52.24975586 19.38779297 52.24975586 15.98779297 52.24975586 C15.58689453 51.35256836 15.18599609 50.45538086 14.77294922 49.53100586 C3.38596981 24.14673209 3.38596981 24.14673209 -18.01220703 7.24975586 C-18.01220703 19.45975586 -18.01220703 31.66975586 -18.01220703 44.24975586 C-20.32220703 44.24975586 -22.63220703 44.24975586 -25.01220703 44.24975586 C-26.01220703 43.24975586 -26.01220703 43.24975586 -26.12573242 39.55615234 C-26.12557327 37.91104294 -26.11987692 36.26592855 -26.10986328 34.62084961 C-26.10844833 33.7566188 -26.10703339 32.892388 -26.10557556 32.00196838 C-26.09995942 29.23036294 -26.08740422 26.45883706 -26.07470703 23.68725586 C-26.06969411 21.81290806 -26.06513084 19.93855901 -26.06103516 18.06420898 C-26.04998475 13.45936042 -26.03270933 8.85457165 -26.01220703 4.24975586 C-28.58197292 4.36920549 -31.15038718 4.49965703 -33.71923828 4.63647461 C-34.8050116 4.68523743 -34.8050116 4.68523743 -35.91271973 4.73498535 C-41.71265151 5.05729561 -45.2035188 6.07420703 -50.01220703 9.24975586 C-50.89908203 9.78600586 -51.78595703 10.32225586 -52.69970703 10.87475586 C-57.36907304 15.67032095 -60.26566123 21.51946907 -60.63720703 28.24975586 C-60.21671882 34.94603063 -57.81207805 40.53065035 -52.98095703 45.22241211 C-42.54042364 53.13981659 -29.45635034 56.51235958 -17.07421875 60.14501953 C-11.22075416 61.86632828 -5.5605329 63.68833548 -0.01220703 66.24975586 C0.58011719 66.51481934 1.17244141 66.77988281 1.78271484 67.05297852 C15.5821233 73.28290658 26.85889168 80.64488142 32.79711914 95.23876953 C34.823515 100.75443524 35.50294251 105.70543358 35.42529297 111.56225586 C35.41554443 112.39257324 35.4057959 113.22289062 35.39575195 114.07836914 C35.00686995 127.63782774 29.31773959 138.66510067 19.96435547 148.34350586 C10.29767693 156.49166402 -2.63932676 162.12014204 -15.01220703 164.24975586 C-16.03314453 164.43022461 -17.05408203 164.61069336 -18.10595703 164.79663086 C-33.3145721 166.56083021 -48.46910828 166.16061765 -63.01220703 161.24975586 C-63.65818848 161.03593262 -64.30416992 160.82210938 -64.96972656 160.60180664 C-75.5431061 157.08081661 -75.5431061 157.08081661 -79.15283203 155.03881836 C-80.99812616 154.08390343 -80.99812616 154.08390343 -83.09814453 154.43334961 C-85.34172829 155.39030676 -86.16013434 156.39568608 -87.63720703 158.31225586 C-89.6256618 160.465068 -90.57283303 161.19968171 -93.52929688 161.53662109 C-94.4182666 161.5025415 -95.30723633 161.46846191 -96.22314453 161.43334961 C-97.12081543 161.40684326 -98.01848633 161.38033691 -98.94335938 161.35302734 C-99.6260791 161.31894775 -100.30879883 161.28486816 -101.01220703 161.24975586 C-101.92906319 141.56660981 -102.13680032 121.94891293 -102.01220703 102.24975586 C-98.71220703 102.24975586 -95.41220703 102.24975586 -92.01220703 102.24975586 C-91.50431641 103.28874023 -90.99642578 104.32772461 -90.47314453 105.39819336 C-84.47193356 117.59992293 -78.64336243 128.45340054 -69.01220703 138.24975586 C-68.05507813 139.2262207 -68.05507813 139.2262207 -67.07861328 140.22241211 C-59.88665335 147.02561745 -50.99962404 151.932695 -41.01220703 152.24975586 C-40.14853516 152.28713867 -39.28486328 152.32452148 -38.39501953 152.36303711 C-29.64886933 152.59319896 -22.44610449 151.3546588 -14.73876953 147.15209961 C-13.01220703 146.24975586 -13.01220703 146.24975586 -10.01220703 145.24975586 C-8.88477943 143.44951727 -8.88477943 143.44951727 -8.01220703 141.24975586 C-7.65900391 140.50338867 -7.30580078 139.75702148 -6.94189453 138.98803711 C-3.79187581 131.74299406 -2.75097142 126.16622434 -5.19970703 118.56225586 C-8.86030555 111.87219649 -12.6077074 108.37329969 -19.38720703 105.18725586 C-20.09272705 104.84637939 -20.79824707 104.50550293 -21.52514648 104.15429688 C-27.80150303 101.19869715 -34.23658314 98.95469525 -40.86474609 96.91235352 C-82.64617284 84.02072184 -82.64617284 84.02072184 -93.63720703 64.04663086 C-98.80745727 53.52987185 -99.93957058 40.36477114 -96.94970703 28.93725586 C-91.8074688 14.63991126 -81.42535559 4.78180962 -68.01220703 -1.75024414 C-45.28292449 -10.88178318 -22.34892354 -9.61599871 0 0 Z " fill="#C29539" transform="translate(556.01220703125,948.750244140625)"/>
<path d="M0 0 C6.35113046 3.76851309 10.39051133 7.72372679 13.625 14.3125 C14.12 16.2925 14.12 16.2925 14.625 18.3125 C19.575 18.6425 24.525 18.9725 29.625 19.3125 C29.625 22.2825 29.625 25.2525 29.625 28.3125 C24.675 28.3125 19.725 28.3125 14.625 28.3125 C14.65830917 30.13081078 14.65830917 30.13081078 14.69229126 31.9858551 C14.89513408 43.41777948 15.04497035 54.84933823 15.14312172 66.28265476 C15.19528069 72.16063577 15.26600517 78.03716263 15.37939453 83.91430664 C15.48816903 89.58785687 15.54786592 95.26001007 15.57377243 100.93452263 C15.59222966 103.09763525 15.62827546 105.26067254 15.68230057 107.42318916 C16.08987124 124.41551639 16.08987124 124.41551639 12.43479919 129.14877319 C9.8803032 130.95020532 7.51075991 132.14246554 4.625 133.3125 C1.15572361 136.17337584 -2.10304354 139.22909697 -5.375 142.3125 C-5.99117187 142.86421875 -6.60734375 143.4159375 -7.2421875 143.984375 C-19.92339991 155.78900591 -29.3098384 173.91271106 -34.375 190.3125 C-34.705 190.3125 -35.035 190.3125 -35.375 190.3125 C-35.375 136.8525 -35.375 83.3925 -35.375 28.3125 C-40.325 28.3125 -45.275 28.3125 -50.375 28.3125 C-50.375 25.3425 -50.375 22.3725 -50.375 19.3125 C-45.425 18.9825 -40.475 18.6525 -35.375 18.3125 C-34.983125 17.11625 -34.59125 15.92 -34.1875 14.6875 C-31.33278138 7.19386363 -26.31282425 2.95558345 -19.375 -0.6875 C-13.24522045 -2.73075985 -5.89206254 -2.82636656 0 0 Z " fill="#C49639" transform="translate(730.375,200.6875)"/>
<path d="M0 0 C0.33 0 0.66 0 1 0 C1 53.46 1 106.92 1 162 C5.95 162 10.9 162 16 162 C16 164.64 16 167.28 16 170 C11.05 170 6.1 170 1 170 C0.649375 171.32 0.29875 172.64 -0.0625 174 C-2.20863591 180.448579 -6.2181732 184.99449696 -11.6875 188.9375 C-18.26028442 191.95742798 -26.37539049 192.13883895 -33.34765625 190.421875 C-39.62957784 187.67431486 -45.39568987 182.01077532 -47.9453125 175.63671875 C-48.5 173.4375 -48.5 173.4375 -49 170 C-53.95 170 -58.9 170 -64 170 C-64 167.36 -64 164.72 -64 162 C-59.05 162 -54.1 162 -49 162 C-49.03664009 160.22593529 -49.03664009 160.22593529 -49.07402039 158.41603088 C-49.297371 147.24970298 -49.4620726 136.08383025 -49.56993389 124.91577244 C-49.62725387 119.17442534 -49.70494465 113.43488644 -49.82983398 107.69458008 C-49.9496905 102.15066315 -50.01519378 96.60848072 -50.04364967 91.06336784 C-50.06391674 88.95209384 -50.10349794 86.84091092 -50.16303062 84.7303791 C-50.63468858 67.31050965 -50.63468858 67.31050965 -46.62075806 62.76608276 C-43.84787622 60.47653222 -41.1395143 58.73614772 -38 57 C-19.20868955 42.16468834 -8.06547891 22.11821517 0 0 Z " fill="#C49639" transform="translate(744,626)"/>
<path d="M0 0 C16.5 0 33 0 50 0 C50 23.76 50 47.52 50 72 C33.5 72 17 72 0 72 C0 48.24 0 24.48 0 0 Z " fill="#C39639" transform="translate(695,475)"/>
<path d="M0 0 C162.36 0 324.72 0 492 0 C492 0.66 492 1.32 492 2 C488.04 2 484.08 2 480 2 C480.01450195 2.99153076 480.02900391 3.98306152 480.04394531 5.00463867 C480.15822296 16.48875621 479.59353764 27.86214426 478.75 39.3125 C478.68342194 40.22963776 478.61684387 41.14677551 478.54824829 42.09170532 C477.38843736 57.85430294 475.71597338 73.41947783 473 89 C472.79004395 90.2159082 472.58008789 91.43181641 472.36376953 92.68457031 C467.56021359 119.99890803 460.83093066 146.70038464 452 173 C450.80435941 169.540168 451.2052654 167.54815575 452.37109375 164.1171875 C452.85570068 162.64113037 452.85570068 162.64113037 453.35009766 161.13525391 C453.70894043 160.05937012 454.0677832 158.98348633 454.4375 157.875 C470.58121495 107.24276431 476.2918377 54.95303121 478 2 C320.26 2 162.52 2 0 2 C0 1.34 0 0.68 0 0 Z " fill="#51401F" transform="translate(783,677)"/>
<path d="M0 0 C116.49 0 232.98 0 353 0 C353.33 0.66 353.66 1.32 354 2 C241.8 2 129.6 2 14 2 C14 12.89 14 23.78 14 35 C13.67 35 13.34 35 13 35 C11.87479505 23.98906587 11.90079709 13.05561292 12 2 C8.04 2 4.08 2 0 2 C0 1.34 0 0.68 0 0 Z " fill="#53411F" transform="translate(165,677)"/>
<path d="M0 0 C2.74619624 0.87130624 4.29192378 1.87054482 6.48266602 3.7199707 C7.52777344 4.5881543 7.52777344 4.5881543 8.59399414 5.47387695 C9.66230469 6.38459961 9.66230469 6.38459961 10.75219727 7.3137207 C12.18198983 8.51306584 13.61292535 9.71105013 15.04516602 10.9074707 C15.67318115 11.44049805 16.30119629 11.97352539 16.94824219 12.52270508 C18.54751037 13.89210061 18.54751037 13.89210061 20.56469727 14.8137207 C19.17754949 18.97516402 16.19299744 20.69697958 12.81469727 23.2512207 C11.56981161 24.2081297 10.32501836 25.16515891 9.08032227 26.12231445 C8.48413086 26.57719238 7.88793945 27.03207031 7.27368164 27.50073242 C5.01098507 29.23912987 2.7848732 31.02147944 0.56469727 32.8137207 C-3.61883114 31.04617995 -6.92460026 28.1928617 -10.43530273 25.3762207 C-11.66418541 24.39799925 -12.89334473 23.42012522 -14.12280273 22.44262695 C-14.69514648 21.98388184 -15.26749023 21.52513672 -15.85717773 21.05249023 C-17.16543825 20.0255543 -18.51458732 19.05095708 -19.87280273 18.09106445 C-20.38842773 17.66954102 -20.90405273 17.24801758 -21.43530273 16.8137207 C-21.43530273 16.1537207 -21.43530273 15.4937207 -21.43530273 14.8137207 C-19.42690522 13.13012338 -17.41559692 11.55501934 -15.31030273 10.0012207 C-14.16093068 9.14179205 -13.0124891 8.28111758 -11.86499023 7.41918945 C-11.29232422 6.99557129 -10.7196582 6.57195312 -10.12963867 6.13549805 C-8.43467878 4.81323394 -6.89407205 3.38736168 -5.31811523 1.92700195 C-2.43530273 -0.1862793 -2.43530273 -0.1862793 0 0 Z " fill="#1E1912" transform="translate(720.435302734375,492.186279296875)"/>
<path d="M0 0 C2.9375 2.4375 2.9375 2.4375 5 5 C5.33 5.33 5.66 5.66 6 6 C6.42086328 10.62949609 5.86788177 13.31272343 3 17 C-0.42159595 19.56619697 -3.84844133 19.50984054 -8 19 C-11.60521591 16.02177816 -13.79128467 13.87843794 -14.3125 9.1875 C-13.92835642 5.2692355 -12.70743683 3.78706733 -10 1 C-6.78540014 -0.60729993 -3.47611897 -0.61930855 0 0 Z " fill="#1D1812" transform="translate(724,844)"/>
<path d="M0 0 C2.9375 2.4375 2.9375 2.4375 5 5 C5.33 5.33 5.66 5.66 6 6 C6.42086328 10.62949609 5.86788177 13.31272343 3 17 C-0.42159595 19.56619697 -3.84844133 19.50984054 -8 19 C-11.60521591 16.02177816 -13.79128467 13.87843794 -14.3125 9.1875 C-13.92835642 5.2692355 -12.70743683 3.78706733 -10 1 C-6.78540014 -0.60729993 -3.47611897 -0.61930855 0 0 Z M-11 6 C-11.48288863 9.31123632 -11.29618989 11.296549 -10 14.375 C-7.29455964 16.5731703 -5.2912076 16.5712063 -1.875 16.3828125 C0.17327025 16.11521018 0.17327025 16.11521018 2 14.375 C3.31035305 11.26291151 3.55741927 9.34451564 3 6 C0.57904909 3.37153902 -1.04614692 2.18611767 -4.5625 1.5 C-7.88912957 2.18238555 -9.04078918 3.24259218 -11 6 Z " fill="#7E6129" transform="translate(724,844)"/>
<path d="M0 0 C-1.34227101 2.98435256 -2.82658283 5.07879551 -5.1328125 7.39160156 C-5.76687012 8.0319635 -6.40092773 8.67232544 -7.05419922 9.33209229 C-7.73756348 10.01140808 -8.42092773 10.69072388 -9.125 11.390625 C-9.8277002 12.09523865 -10.53040039 12.79985229 -11.25439453 13.52581787 C-12.73810104 15.01088353 -14.22432892 16.49343381 -15.71289062 17.97363281 C-17.99843591 20.24844325 -20.27309017 22.5337536 -22.546875 24.8203125 C-23.98894219 26.26105868 -25.43162935 27.70118465 -26.875 29.140625 C-27.55836426 29.82803772 -28.24172852 30.51545044 -28.94580078 31.22369385 C-29.89688721 32.16532379 -29.89688721 32.16532379 -30.8671875 33.12597656 C-31.70419189 33.96059418 -31.70419189 33.96059418 -32.55810547 34.81207275 C-34 36 -34 36 -36 36 C-34.65772899 33.01564744 -33.17341717 30.92120449 -30.8671875 28.60839844 C-30.23312988 27.9680365 -29.59907227 27.32767456 -28.94580078 26.66790771 C-28.26243652 25.98859192 -27.57907227 25.30927612 -26.875 24.609375 C-26.1722998 23.90476135 -25.46959961 23.20014771 -24.74560547 22.47418213 C-23.26189896 20.98911647 -21.77567108 19.50656619 -20.28710938 18.02636719 C-18.00156409 15.75155675 -15.72690983 13.4662464 -13.453125 11.1796875 C-12.01105781 9.73894132 -10.56837065 8.29881535 -9.125 6.859375 C-8.44163574 6.17196228 -7.75827148 5.48454956 -7.05419922 4.77630615 C-6.4201416 4.14855286 -5.78608398 3.52079956 -5.1328125 2.87402344 C-4.29580811 2.03940582 -4.29580811 2.03940582 -3.44189453 1.18792725 C-2 0 -2 0 0 0 Z " fill="#372B18" transform="translate(355,277)"/>
<path d="M0 0 C3 2 3 2 4.3125 5.5625 C4.869375 6.696875 5.42625 7.83125 6 9 C9.08369887 10.05749557 9.08369887 10.05749557 12 10 C10.68 10.33 9.36 10.66 8 11 C8 11.66 8 12.32 8 13 C4.85841051 12.06601394 3.2674852 11.33205059 1.1875 8.75 C-0.16280181 5.62298529 -0.23523553 3.3717092 0 0 Z " fill="#725826" transform="translate(710,850)"/>
</svg>
